<?xml version="1.0" encoding="UTF-8" standalone="no"?>
<!-- Created with Inkscape (http://www.inkscape.org/) -->

<svg
   width="158.40958mm"
   height="158.30875mm"
   viewBox="0 0 158.40958 158.30875"
   version="1.1"
   id="svg5"
   inkscape:export-filename="ball.png"
   inkscape:export-xdpi="96"
   inkscape:export-ydpi="96"
   xmlns:inkscape="http://www.inkscape.org/namespaces/inkscape"
   xmlns:sodipodi="http://sodipodi.sourceforge.net/DTD/sodipodi-0.dtd"
   xmlns="http://www.w3.org/2000/svg"
   xmlns:svg="http://www.w3.org/2000/svg">
  <sodipodi:namedview
     id="namedview7"
     pagecolor="#ffffff"
     bordercolor="#000000"
     borderopacity="1"
     inkscape:showpageshadow="2"
     inkscape:pageopacity="0"
     inkscape:pagecheckerboard="0"
     inkscape:deskcolor="#313131"
     inkscape:document-units="px"
     showgrid="false" />
  <defs
     id="defs2" />
  <g
     inkscape:groupmode="layer"
     id="layer1"
     inkscape:label="ball"
     transform="translate(-71.519461,-14.160159)">
    <path
       sodipodi:type="star"
       style="fill:#de8787;fill-opacity:1;stroke-width:0.264583"
       id="path4712"
       inkscape:flatsided="false"
       sodipodi:sides="39"
       sodipodi:cx="150.71664"
       sodipodi:cy="93.251022"
       sodipodi:r1="39.979233"
       sodipodi:r2="7.9958467"
       sodipodi:arg1="0.85012244"
       sodipodi:arg2="0.9306761"
       inkscape:rounded="7.484"
       inkscape:randomized="0"
       d="M 177.09859,123.28987 C -2.9321393,281.40381 347.66233,-43.45089 155.4925,99.663883 -36.677329,242.77866 375.00101,-0.05461618 171.93838,127.13283 -31.124257,254.32028 367.04046,-10.088327 154.40196,100.34694 -58.236546,210.78221 387.06387,37.13141 166.22854,130.09828 -54.606792,223.06515 380.81592,25.95067 153.21597,100.84621 c -227.599954,74.89555 239.78948,-25.075305 6.90098,31.26319 -232.888507,56.33849 228.51498,-68.376688 -8.1517,-30.96062 -236.666685,37.41607 240.70663,13.71435 1.79664,31.96533 -238.909985,18.25098 236.52417,-30.83485 -3.0797,-31.86732 -239.603871,-1.03246 235.38961,52.14881 -3.35422,31.83959 -238.74383,-20.30922 238.4075,7.50561 2.07205,-31.94866 -236.33544,-39.454256 223.97612,89.23265 -8.41821,30.88922 -232.394331,-58.343422 234.1162,45.65166 7.17015,-31.20255 C -78.794096,23.970183 354.91372,224.82979 134.88778,129.96323 -85.138164,35.096662 358.6492,212.57859 146.97032,100.31492 -64.708564,-11.94876 331.1627,255.8814 129.20371,126.94869 -72.75529,-1.9840258 336.81504,244.38806 145.8857,99.622487 -45.043632,-45.143084 302.73823,282.72096 124.07681,123.06139 -54.584611,-36.598176 310.16102,272.28315 144.92621,98.76504 -20.308612,-74.753073 270.37647,304.65335 119.63987,118.40203 -31.096738,-67.849301 279.37749,295.54141 144.11668,97.764784 8.855872,-100.01184 234.91559,321.11053 116.0078,113.09126 -2.8999931,-94.928011 245.2617,313.56046 143.47809,96.647623 41.694476,-120.26521 197.274,331.66627 113.27467,107.26665 29.275342,-117.13298 208.69725,325.8736 143.02697,95.442492 77.356697,-134.98862 158.4266,336.04719 111.51127,101.07903 64.595943,-133.88912 170.63113,332.16194 142.77502,94.180603 114.9189,-143.80074 119.37951,334.1398 110.76327,94.688677 102.14702,-144.76245 132.04924,332.26262 142.72874,92.894639 153.40825,-146.47334 81.144043,325.99353 111.05004,88.261088 140.95603,-149.47135 93.95082,326.17302 142.88935,91.617904 191.82789,-142.93721 44.710467,311.81934 112.36415,81.962735 180.01784,-147.89387 57.322607,314.05086 143.25268,90.383467 229.18276,-133.28393 11.022395,291.98435 114.67158,75.956743 218.32076,-140.07087 23.113251,296.2101 143.80933,89.223298 264.50541,-117.76351 -19.047669,267.00228 117.91255,70.398664 254.87276,-126.20495 -7.7912449,273.11281 144.54487,88.167445 296.88098,-96.777924 -44.720927,237.52013 122.00313,65.432449 288.72718,-106.65523 -34.59047,245.3572 145.44026,87.243253 325.47098,-70.87069 -65.332454,204.30149 126.83737,61.18672 319.0072,-81.928053 -56.590337,213.66211 146.4723,86.47466 349.53493,-40.71279 -80.348424,168.20671 132.29008,57.77144 344.92858,-52.663826 -73.221063,178.84844 147.61427,85.881571 368.44959,-7.0852971 -89.379929,130.17061 138.22002,55.275062 365.81998,-19.620481 -84.05192,141.81784 148.83658,85.479347 381.72509,29.140853 -92.193059,91.178308 144.47362,53.762242 381.14031,16.346176 -88.802394,103.52939 150.10759,85.278405 389.01758,67.027423 -88.714955,52.239693 150.88892,53.272161 390.49279,54.304629 -87.349451,64.974729 151.39438,85.28395 390.13821,105.59317 -79.035699,14.363249 157.29975,53.817511 393.63519,93.271772 -79.730721,27.152413 152.66361,85.495838 385.05794,143.83926 -63.405978,-21.470043 163.54008,55.384168 390.48613,132.23838 -66.143526,-8.9579849 153.88242,85.908581 373.90836,180.77515 -42.230593,-54.332119 169.44829,57.931557 381.12717,170.19523 -46.939766,-42.421223 155.01923,86.511489 356.97823,215.4442 -16.057976,-83.37187 174.87136,61.393701 365.80069,206.15927 -22.616809,-72.370621 156.04461,87.288948 334.70603,246.94852 14.434016,-107.83718 179.66883,65.680934 344.90365,239.19905 6.195394,-98.030505 156.932,88.220821 307.66861,274.47215 48.455656,-127.09441 183.71646,70.682217 318.97727,268.45885 38.750621,-118.7363 157.65841,89.282974 276.56621,297.30225 85.125802,-140.64481 186.90942,76.26802 288.69303,293.18085 74.205709,-133.95173 158.20504,90.447898 c 83.99933,224.399632 -34.71032,-238.585328 30.95995,-8.154223 65.67028,230.431105 -77.5226,-225.576405 -30.60727,9.391745 46.91533,234.96815 4.01094,-241.06364 31.86706,-3.082302 27.85612,237.981342 -40.33371,-235.090748 -31.71746,4.360373 8.61624,239.451129 42.62833,-237.298531 31.94883,2.069449 -10.67951,239.36798 -2.10019,-238.51637 -32.00618,-0.783931 -29.906,237.732441 80.14166,-227.387509 31.20313,7.167601 -48.93853,234.55511 36.18773,-235.76454 -31.46596,-5.90793 -67.653682,229.85661 115.57938,-211.58727 29.6493,12.08012 -85.93008,223.66739 73.5384,-226.90653 -30.11078,-10.878922 C 54.276478,312.73749 305.9493,-93.597161 185.25322,113.38964 64.557139,320.37645 294.23768,-98.782118 157.27746,97.821494 20.317247,294.42511 333.91163,-66.276457 181.57552,118.66891 29.239402,303.61428 323.1834,-73.272946 156.45935,98.814737 -10.264707,270.90242 357.12931,-34.824075 177.09859,123.28987 Z"
       inkscape:transform-center-x="-0.12236648"
       inkscape:transform-center-y="-0.022006586"
       inkscape:export-filename="goal.svg"
       inkscape:export-xdpi="96"
       inkscape:export-ydpi="96" />
  </g>
</svg>
