<?xml version="1.0" encoding="UTF-8" standalone="no"?>
<!-- Created with Inkscape (http://www.inkscape.org/) -->

<svg
   width="117.14906mm"
   height="137.06009mm"
   viewBox="0 0 117.14907 137.06009"
   version="1.1"
   id="svg5"
   xmlns="http://www.w3.org/2000/svg"
   xmlns:svg="http://www.w3.org/2000/svg">
  <defs
     id="defs2" />
  <g
     id="layer1"
     transform="translate(-21.03186,19.853544)">
    <path
       style="fill:#aa4400;stroke-width:0.264583"
       id="path1031"
       d="M 130.39925,91.611941 98.818022,84.925219 98.7646,117.20654 78.870116,91.784187 58.079161,116.47877 59.180273,84.216195 27.380104,89.769177 48.96159,65.76239 21.03186,49.575466 52.995503,45.057512 42.004842,14.704724 69.394497,31.789604 80.485559,1.473359 90.485303,32.166868 118.46846,16.072474 106.3993,46.012777 138.18091,51.67098 109.69014,66.848677 Z" />
    <path
       style="fill:#aa4400;stroke-width:0.264583"
       id="path1033"
       d="M 119.50187,50.054102 93.593451,57.699575 68.832039,46.902738 56.803769,22.715553 63.136803,-3.5445286 84.867844,-19.590122 111.8287,-17.913317 131.40408,0.70129234 134.43445,27.543722 Z"
       transform="matrix(1.0068165,0,0,1.0068165,-0.65178414,-0.12988584)" />
  </g>
</svg>
