<?xml version="1.0" encoding="UTF-8" standalone="no"?>
<!-- Created with Inkscape (http://www.inkscape.org/) -->

<svg
   width="87.633484mm"
   height="83.646835mm"
   viewBox="0 0 87.633484 83.646835"
   version="1.1"
   id="svg5"
   xmlns="http://www.w3.org/2000/svg"
   xmlns:svg="http://www.w3.org/2000/svg">
  <defs
     id="defs2" />
  <g
     id="layer1"
     transform="translate(-0.6963145,-5.0907637)">
    <path
       style="fill:#2b0000;stroke-width:0.264583"
       id="path1256"
       d="M 62.983209,86.809701 C 52.306524,93.683544 58.708256,80.054572 46.061635,78.912509 27.672994,77.251907 35.615504,91.304572 19.197598,82.857555 7.9063327,77.048197 22.910235,75.777774 17.57598,64.254447 9.8197826,47.499116 1.621073,61.403864 0.72745095,42.962032 0.11287056,30.27883 8.7150401,42.637378 16.027406,32.256115 26.65985,17.161386 10.51863,17.013469 26.042914,7.0186532 36.719599,0.14481002 30.317867,13.773782 42.964488,14.915845 61.353129,16.576447 53.410619,2.5237819 69.828525,10.970798 81.11979,16.780157 66.115889,18.05058 71.450143,29.573907 79.20634,46.329238 87.40505,32.42449 88.298672,50.866322 88.913252,63.549524 80.311083,51.190976 72.998717,61.572239 62.366273,76.666968 78.507493,76.814885 62.983209,86.809701 Z" />
  </g>
</svg>
