<?xml version="1.0" encoding="UTF-8" standalone="no"?>
<!-- Created with Inkscape (http://www.inkscape.org/) -->

<svg
   width="83.97113mm"
   height="84.259003mm"
   viewBox="0 0 83.97113 84.259003"
   version="1.1"
   id="svg5"
   inkscape:export-filename="ball.png"
   inkscape:export-xdpi="96"
   inkscape:export-ydpi="96"
   xmlns:inkscape="http://www.inkscape.org/namespaces/inkscape"
   xmlns:sodipodi="http://sodipodi.sourceforge.net/DTD/sodipodi-0.dtd"
   xmlns="http://www.w3.org/2000/svg"
   xmlns:svg="http://www.w3.org/2000/svg">
  <sodipodi:namedview
     id="namedview7"
     pagecolor="#ffffff"
     bordercolor="#000000"
     borderopacity="1"
     inkscape:showpageshadow="2"
     inkscape:pageopacity="0"
     inkscape:pagecheckerboard="0"
     inkscape:deskcolor="#313131"
     inkscape:document-units="px"
     showgrid="false" />
  <defs
     id="defs2" />
  <g
     inkscape:groupmode="layer"
     id="layer1"
     inkscape:label="ball"
     transform="translate(-88.329038,-36.257485)">
    <path
       sodipodi:type="star"
       style="fill:#808000;fill-opacity:1;stroke-width:0.264583"
       id="path4522"
       inkscape:flatsided="false"
       sodipodi:sides="23"
       sodipodi:cx="130.08125"
       sodipodi:cy="78.362206"
       sodipodi:r1="42.11842"
       sodipodi:r2="17.070293"
       sodipodi:arg1="2.0899425"
       sodipodi:arg2="2.2265335"
       inkscape:rounded="0.61435874"
       inkscape:randomized="0.01"
       d="M 109.38509,114.73742 C 95.898367,107.13527 131.70127,101.63669 119.31021,92.251316 106.91916,82.865943 111.35673,118.6143 100.30799,107.71421 89.259262,96.814131 125.46186,101.32108 116.0247,88.882394 106.58753,76.44371 101.15702,112.59081 93.406017,99.03289 85.655016,85.474969 119.63814,98.835717 113.92507,84.401609 108.212,69.967501 93.018701,103.31459 89.469375,88.206641 85.920049,73.098693 114.13976,95.892013 112.78441,80.401591 111.42906,64.91117 87.803978,92.410777 88.337953,76.814855 88.871927,61.218932 111.08877,90.484399 113.6976,75.154615 116.30644,59.82483 85.673137,80.369548 90.412521,65.516984 95.151906,50.664419 108.22948,85.162301 115.05161,71.196311 121.87374,57.230322 86.178101,67.915487 94.69346,54.984145 c 8.51536,-12.931342 12.39763,24.092506 22.68177,12.490285 10.28414,-11.602221 -26.902801,-10.552939 -15.1295,-20.718536 11.77329,-10.165597 5.79583,25.748876 18.71967,17.181597 12.92385,-8.56728 -23.012485,-16.998463 -8.9665,-23.546819 14.04598,-6.548356 -1.80745,25.761098 13.06416,21.397724 14.8716,-4.363374 -17.56624,-22.093133 -2.26601,-24.648553 15.30023,-2.55542 -8.76172,24.794398 6.84672,24.22521 15.60844,-0.569188 -10.06772,-26.819956 5.40215,-25.018984 15.46988,1.800972 -16.13434,21.939722 -0.99831,25.699466 15.13602,3.759744 -2.80791,-28.848335 11.48041,-22.856757 14.28833,5.991578 -20.70975,16.688183 -7.2683,24.609812 13.44144,7.921629 4.93985,-28.63897 17.25088,-19.083662 12.31103,9.555307 -23.92082,10.365515 -13.10576,21.634759 10.81506,11.269244 12.03645,-25.956955 21.30696,-13.438506 9.27051,12.518449 -26.00467,3.6083 -18.70915,17.263196 7.29553,13.654896 18.72242,-21.689431 24.31182,-7.165508 5.5894,14.523923 -25.99539,-3.351687 -22.53005,11.743998 3.46534,15.095685 24.17376,-15.838636 25.46831,-0.268278 1.29455,15.570359 -24.33787,-10.801983 -25.16253,4.654541 -0.82465,15.456525 27.54908,-8.979211 24.68788,6.331335 -2.8612,15.310545 -20.88007,-16.234945 -25.76221,-1.465735 -4.88214,14.76921 28.92605,-0.971429 21.94143,12.9249 -6.98463,13.89633 -15.37208,-22.203975 -23.97491,-9.325233 -8.60283,12.878743 27.49641,6.643368 17.31663,18.338113 -10.17977,11.69474 -7.93526,-25.16903 -19.83093,-15.056137 -11.89566,10.112897 24.26722,14.632487 11.19987,23.097937 -13.06736,8.46545 -1.61927,-27.123099 -15.6913,-20.374377 -14.07203,6.748717 20.50752,20.035687 5.62553,24.810287 -14.88199,4.77459 5.75558,-25.510245 -9.62017,-23.2029 -15.37574,2.307346 13.56391,24.66939 -1.94758,25.28726 -15.51149,0.61788 12.52687,-23.021321 -2.91078,-24.817857 -15.43766,-1.796535 6.99983,27.336337 -8.16033,23.698847 -15.16016,-3.63749 18.2276,-19.434348 3.81214,-25.084854 -14.41547,-5.650507 -0.90366,28.038864 -14.39038,20.436704 z"
       inkscape:transform-center-x="0.062374499"
       inkscape:transform-center-y="0.015341163"
       inkscape:export-filename="powerup2.svg"
       inkscape:export-xdpi="96"
       inkscape:export-ydpi="96" />
  </g>
</svg>
